<?xml version="1.0" encoding="utf-8"?>
<!-- Generator: Adobe Illustrator 16.0.0, SVG Export Plug-In . SVG Version: 6.00 Build 0)  -->
<!DOCTYPE svg PUBLIC "-//W3C//DTD SVG 1.1//EN" "http://www.w3.org/Graphics/SVG/1.1/DTD/svg11.dtd">
<svg version="1.1" id="图层_1" xmlns="http://www.w3.org/2000/svg" xmlns:xlink="http://www.w3.org/1999/xlink" x="0px" y="0px"
	 width="309.248px" height="309.247px" viewBox="0 0 309.248 309.247" enable-background="new 0 0 309.248 309.247"
	 xml:space="preserve">
<g>
	<circle fill="#6CC5E1" cx="154.624" cy="154.624" r="154.624"/>
	<path fill="#2AAACA" d="M185.755,68.909l-8.456,15.544l24.822,38.915l-55.956,85.408l-17.96,31.418l64.154,64.156
		c56.296-13.967,100.415-58.771,113.38-115.457L185.755,68.909z"/>
	<g>
		<path fill-rule="evenodd" clip-rule="evenodd" fill="#FFFFFF" d="M202.121,123.368c0-16.705-10.008-31.264-24.822-38.915
			l7.547-13.745c0.409-0.718,0.142-1.635-0.593-2.03c-0.72-0.399-1.637-0.136-2.031,0.597l-7.633,13.877
			c-6.392-2.83-13.561-4.416-21.134-4.416c-7.57,0-14.739,1.586-21.131,4.416l-7.631-13.877c-0.396-0.732-1.312-0.996-2.031-0.597
			c-0.736,0.396-1.002,1.312-0.594,2.03l7.548,13.744c-14.814,7.652-24.821,22.211-24.821,38.916H202.121L202.121,123.368z
			 M135.384,101.67c0,2.253-1.829,4.077-4.077,4.077c-2.251-0.001-4.076-1.824-4.076-4.077c0-2.251,1.825-4.076,4.076-4.076
			C133.554,97.593,135.384,99.419,135.384,101.67L135.384,101.67z M171.532,101.67c0,2.253,1.828,4.077,4.077,4.077
			c2.25-0.001,4.075-1.824,4.075-4.077c0-2.251-1.825-4.076-4.075-4.076C173.36,97.593,171.532,99.419,171.532,101.67
			L171.532,101.67z"/>
		<path fill-rule="evenodd" clip-rule="evenodd" fill="#FFFFFF" d="M201.751,127.137v70.105c0,6.371-5.165,11.533-11.534,11.533
			h-73.523c-6.367,0-11.529-5.162-11.529-11.533v-70.105H201.751L201.751,127.137z"/>
		<path fill-rule="evenodd" clip-rule="evenodd" fill="#FFFFFF" d="M100.984,181.145c0,5.967-4.834,10.799-10.802,10.799
			c-5.964,0-10.802-4.832-10.802-10.799v-45.246c0-5.965,4.838-10.803,10.802-10.803c5.968,0,10.802,4.838,10.802,10.803V181.145
			L100.984,181.145z"/>
		<path fill-rule="evenodd" clip-rule="evenodd" fill="#FFFFFF" d="M227.534,181.145c0,5.967-4.834,10.799-10.802,10.799
			c-5.965,0-10.804-4.832-10.804-10.799v-45.246c0-5.965,4.839-10.803,10.804-10.803c5.968,0,10.802,4.838,10.802,10.803V181.145
			L227.534,181.145z"/>
		<path fill-rule="evenodd" clip-rule="evenodd" fill="#FFFFFF" d="M160.75,232.706c0,5.969,4.836,10.805,10.803,10.805
			c5.965,0,10.801-4.836,10.801-10.805v-25.883c0-5.965-4.836-10.803-10.801-10.803c-5.967,0-10.803,4.838-10.803,10.803V232.706
			L160.75,232.706z"/>
		<path fill-rule="evenodd" clip-rule="evenodd" fill="#FFFFFF" d="M124.56,232.706c0,5.969,4.836,10.805,10.802,10.805
			c5.967,0,10.803-4.836,10.803-10.805v-25.883c0-5.965-4.836-10.803-10.803-10.803c-5.966,0-10.802,4.838-10.802,10.803V232.706
			L124.56,232.706z"/>
	</g>
</g>
</svg>
