<?xml version="1.0" encoding="utf-8"?>
<!-- Generator: Adobe Illustrator 16.0.0, SVG Export Plug-In . SVG Version: 6.00 Build 0)  -->
<!DOCTYPE svg PUBLIC "-//W3C//DTD SVG 1.1//EN" "http://www.w3.org/Graphics/SVG/1.1/DTD/svg11.dtd">
<svg version="1.1" id="图层_1" xmlns="http://www.w3.org/2000/svg" xmlns:xlink="http://www.w3.org/1999/xlink" x="0px" y="0px"
	 width="309.248px" height="309.247px" viewBox="0 0 309.248 309.247" enable-background="new 0 0 309.248 309.247"
	 xml:space="preserve">
<circle fill="#6CC5E1" cx="154.624" cy="154.624" r="154.624"/>
<path fill="#2AAACA" d="M184.929,70.749l-32.887,39.465l7.812,8.304l-49.933,106.057l81.612,81.615
	c56.296-13.967,100.415-58.771,113.38-115.457L184.929,70.749z"/>
<g>
	<path fill="#FFFFFF" d="M200.444,160.209c0,0-3.029-21.746,17.823-33.331c0,0-20.139-27.627-52.224-10.695
		c0,0-13.236,3.363-23.754-2.52c0,0-3.743-3.387-13.723-3.742c0,0-39.7,2.52-42.196,47.258c0,0-1.605,31.904,19.606,58.998
		c0,0,8.555,12.299,18.358,15.508c0,0,8.022,2.852,17.29-2.139c0,0,13.854-5.195,18.001-3.744c0,0,10.647,1.223,17.647,5.703
		c0,0,12.478,3.744,19.429-3.385c6.95-7.131,16.707-12.859,26.2-37.789C222.903,190.333,203.653,181.243,200.444,160.209z"/>
	<path fill="#FFFFFF" d="M178.151,97.043c6.505-7.516,9.102-17.096,7.984-26.294c-10.239,0.097-19.664,3.836-26.124,11.3
		c-6.29,7.268-8.672,16.809-7.527,26.67C162.019,108.717,171.462,104.771,178.151,97.043z"/>
</g>
</svg>
