<?xml version="1.0" encoding="utf-8"?>
<!-- Generator: Adobe Illustrator 16.0.0, SVG Export Plug-In . SVG Version: 6.00 Build 0)  -->
<!DOCTYPE svg PUBLIC "-//W3C//DTD SVG 1.1//EN" "http://www.w3.org/Graphics/SVG/1.1/DTD/svg11.dtd">
<svg version="1.1" id="图层_1" xmlns="http://www.w3.org/2000/svg" xmlns:xlink="http://www.w3.org/1999/xlink" x="0px" y="0px"
	 width="309.248px" height="309.247px" viewBox="0 0 309.248 309.247" enable-background="new 0 0 309.248 309.247"
	 xml:space="preserve">
<circle fill="#6CC5E1" cx="154.624" cy="154.624" r="154.624"/>
<path fill="#2AAACA" d="M235.312,88.571v132.105H73.936l88.031,88.396c81.924-1.938,140.78-70.514,146.222-138.372L235.312,88.571z"
	/>
<g>
	<path fill="#FFFFFF" d="M169.093,88.571c-3.345,4.761-7.018,11.692-11.053,20.763c-2.641,5.646-4.997,11.797-7.076,18.476
		c-2.072,6.662-3.664,12.706-4.758,18.129c-1.104,5.417-1.651,9.313-1.651,11.694v1.502h28.212c0,2.447-0.114,4.621-0.329,6.531
		c-0.225,1.916-0.521,3.961-0.904,6.158c-0.367,2.188-0.725,4.785-1.035,7.793c-0.311,3.01-0.471,5.674-0.471,7.987h4.591
		c6.44-0.754,12.193-1.923,17.264-3.524c5.059-1.601,10.188-4,15.375-7.19l4.881,6.11c-4.691,3.024-9.062,5.406-13.133,7.143
		c-4.062,1.734-8.3,3.093-12.705,4.074c-4.406,0.972-9.83,1.775-16.271,2.408l-0.562,3.195c0,5.885,1.104,12.842,3.302,20.855
		h62.546V88.571H169.093z M189.771,127.379h-7.411v-19.558h7.411V127.379z"/>
	<path fill="#FFFFFF" d="M142.471,196.625c-8.581,0-17.381-1.385-26.392-4.162c-9.02-2.778-15.468-6.123-19.354-10.028l5.725-6.11
		c3.637,3.258,9.628,5.949,17.981,8.086c8.366,2.133,15.707,3.195,22.032,3.195h18.132c0-3.264,0.143-6.406,0.424-9.443
		c0.282-3.039,0.709-6.437,1.274-10.209h-26.614v-13.429c0-4.945,1.229-12.166,3.688-21.653c2.449-9.487,5.53-18.048,9.243-25.696
		c3.334-7.323,6.666-13.524,10.002-18.604H73.936v132.104h89.961c-2.201-8.014-3.302-16.033-3.302-24.051H142.471z M113.804,107.821
		h7.407v19.558h-7.407V107.821z"/>
</g>
</svg>
