<?xml version="1.0" encoding="utf-8"?>
<!-- Generator: Adobe Illustrator 16.0.0, SVG Export Plug-In . SVG Version: 6.00 Build 0)  -->
<!DOCTYPE svg PUBLIC "-//W3C//DTD SVG 1.1//EN" "http://www.w3.org/Graphics/SVG/1.1/DTD/svg11.dtd">
<svg version="1.1" id="图层_1" xmlns="http://www.w3.org/2000/svg" xmlns:xlink="http://www.w3.org/1999/xlink" x="0px" y="0px"
	 width="309.248px" height="309.247px" viewBox="0 0 309.248 309.247" enable-background="new 0 0 309.248 309.247"
	 xml:space="preserve">
<circle fill="#6CC5E1" cx="154.624" cy="154.624" r="154.624"/>
<path fill="#2AAACA" d="M214.082,102.157l-75.477-20.305l-56.131,31.77l57.002,57.098l12.961,12.674L68.383,225.12l84.102,84.102
	c0.657,0.008,1.312,0.025,1.971,0.025c72.938,0,134.07-50.504,150.358-118.447L214.082,102.157z"/>
<g>
	<g>
		<path fill="#FFFFFF" d="M157.824,169.461c-5.418,5.414-14.22,5.414-19.649-0.016c-5.434-5.439-5.451-14.242-0.034-19.68
			c5.43-5.421,14.283-5.446,19.709-0.009C163.297,155.196,163.27,164.016,157.824,169.461L157.824,169.461z"/>
		<path fill="#FFFFFF" d="M187.828,129.331c-0.029-0.026,0-0.052-0.029-0.078c-0.069-0.12-0.143-0.24-0.22-0.344
			c-0.03-0.069-0.069-0.129-0.103-0.198c-1.889-3.063-4.109-5.929-6.67-8.476c-18.078-18.083-47.502-18.083-65.572,0
			c-2.551,2.538-4.75,5.378-6.612,8.407c-1.149,1.54-1.842,3.411-1.842,5.48c0,5.1,4.135,9.242,9.25,9.242
			c2.818,0,5.292-1.273,6.991-3.253c0.263-0.121,0.482-0.275,0.624-0.542c1.235-2.22,2.797-4.32,4.677-6.195
			c10.868-10.868,28.546-10.885,39.389-0.034c1.644,1.644,3.029,3.425,4.164,5.335c0.043,0.06,0.095,0.081,0.143,0.119
			c1.631,2.634,4.513,4.398,7.839,4.398c5.098,0,9.237-4.131,9.237-9.251C189.094,132.255,188.611,130.698,187.828,129.331z"/>
		<path fill="#FFFFFF" d="M214.082,102.157c-0.03-0.087-0.018-0.164-0.064-0.216c-2.151-2.779-4.488-5.421-6.987-7.933
			c-32.548-32.544-85.479-32.544-118.023,0.017c-2.177,2.168-4.212,4.482-6.113,6.866c-1.699,1.687-2.767,4.01-2.767,6.583
			c0,5.111,4.135,9.254,9.254,9.254c2.776,0,5.236-1.247,6.919-3.179c0.133-0.069,0.271-0.116,0.366-0.241
			c1.677-2.178,3.484-4.259,5.438-6.195c25.307-25.315,66.527-25.315,91.834,0c2.216,2.22,4.281,4.611,6.136,7.115
			c0.124,0.146,0.274,0.241,0.481,0.285c1.627,1.471,3.761,2.383,6.131,2.383c5.115,0,9.255-4.134,9.255-9.254
			C215.931,105.589,215.234,103.697,214.082,102.157z"/>
	</g>
	<path fill="#FFFFFF" d="M234.174,183.393h-6.793V142.59c0-3.434-2.784-6.222-6.217-6.222c-3.434,0-6.222,2.788-6.222,6.222v40.803
		H82.752c-11.578,0-20.953,10.799-20.953,24.129c0,13.324,9.375,24.123,20.953,24.123H234.17c11.569,0,20.943-10.791,20.943-24.123
		C255.113,194.192,245.739,183.393,234.174,183.393z M172.822,219.963c-5.038,0-9.134-4.113-9.134-9.139
		c0-5.045,4.104-9.146,9.134-9.146c5.051,0,9.154,4.117,9.154,9.146C181.986,215.854,177.873,219.963,172.822,219.963z
		 M198.955,219.963c-5.052,0-9.139-4.113-9.139-9.146c0-5.047,4.096-9.139,9.139-9.139c5.033,0,9.138,4.102,9.138,9.139
		S203.988,219.963,198.955,219.963z M225.088,219.963c-5.051,0-9.156-4.113-9.156-9.139c0-5.045,4.105-9.146,9.156-9.146
		c5.037,0,9.138,4.109,9.138,9.146C234.225,215.86,230.121,219.963,225.088,219.963z"/>
</g>
</svg>
