<?xml version="1.0" encoding="utf-8"?>
<!-- Generator: Adobe Illustrator 16.0.0, SVG Export Plug-In . SVG Version: 6.00 Build 0)  -->
<!DOCTYPE svg PUBLIC "-//W3C//DTD SVG 1.1//EN" "http://www.w3.org/Graphics/SVG/1.1/DTD/svg11.dtd">
<svg version="1.1" id="图层_1" xmlns="http://www.w3.org/2000/svg" xmlns:xlink="http://www.w3.org/1999/xlink" x="0px" y="0px"
	 width="309.248px" height="309.247px" viewBox="0 0 309.248 309.247" enable-background="new 0 0 309.248 309.247"
	 xml:space="preserve">
<circle fill="#6CC5E1" cx="154.623" cy="154.624" r="154.624"/>
<g>
	<polygon fill="#FFFFFF" points="225.717,217.93 223.322,217.93 223.322,225.333 222.352,225.333 222.352,217.93 219.969,217.93 
		219.969,217.051 225.717,217.051 	"/>
	<path fill="#FFFFFF" d="M234.866,225.333h-0.965v-5.555c0-0.438,0.029-0.977,0.081-1.609h-0.024
		c-0.09,0.371-0.173,0.643-0.246,0.801l-2.831,6.363h-0.474l-2.824-6.318c-0.081-0.184-0.162-0.465-0.248-0.846h-0.022
		c0.029,0.328,0.046,0.871,0.046,1.621v5.543h-0.935v-8.281h1.281l2.54,5.777c0.197,0.441,0.325,0.773,0.383,0.994h0.033
		c0.165-0.455,0.299-0.797,0.398-1.016l2.594-5.756h1.213V225.333z"/>
	<polygon fill="#FFFFFF" points="214.796,151.45 214.796,83.407 136.639,94.808 136.639,151.45 	"/>
	<polygon fill="#FFFFFF" points="131.135,95.611 74.38,103.89 74.38,151.449 131.135,151.449 	"/>
	<polygon fill="#FFFFFF" points="74.38,156.956 74.38,205.118 131.134,213.493 131.134,156.956 	"/>
	<polygon fill="#FFFFFF" points="136.639,214.305 214.797,225.838 214.797,156.956 136.639,156.956 	"/>
</g>
<path fill="#2AAACA" d="M214.762,83.407l0.034,142.431L74.38,205.118l99.408,102.918c69.167-8.666,124.117-63.018,133.709-131.895
	L214.762,83.407z"/>
</svg>
