<?xml version="1.0" encoding="utf-8"?>
<!-- Generator: Adobe Illustrator 16.0.0, SVG Export Plug-In . SVG Version: 6.00 Build 0)  -->
<!DOCTYPE svg PUBLIC "-//W3C//DTD SVG 1.1//EN" "http://www.w3.org/Graphics/SVG/1.1/DTD/svg11.dtd">
<svg version="1.1" id="图层_1" xmlns="http://www.w3.org/2000/svg" xmlns:xlink="http://www.w3.org/1999/xlink" x="0px" y="0px"
	 width="442.035px" height="366.258px" viewBox="-0.001 13.595 442.035 366.258"
	 enable-background="new -0.001 13.595 442.035 366.258" xml:space="preserve">
<g>
	<path fill="#5FABBC" d="M209.241,341.884c89.457,0,162.248-72.778,162.248-162.251c0-89.456-72.791-162.265-162.248-162.265"/>
	<path fill="#5FABBC" d="M209.241,17.368c-89.479,0-162.281,72.809-162.281,162.265c0,89.473,72.806,162.251,162.281,162.251"/>
	<g>
		<path fill="#DCDDDD" d="M364.454,223.74c-2.135,0.046-4.92,1.061-4.955,1.781c-0.049,0.735-2.982,2.061-3.967,2.447
			c-0.969,0.396-2.854,3.408-3.271,4.396c-0.402,0.99-2.814,0.689-3.709,1.1c-0.887,0.387-2.719,1.863-2.727,2.75
			c0,0.881-0.502,0.787-1.104-0.219c0,0,0,0-1.172,1.223c-1.379,1.551-1.379,1.551-1.379,1.551c-0.803,2.49-3.438,5.64-4.352,5.898
			c-0.904,0.254-1.062,4.641-1.062,6.391c0,1.781,0.691,3.947,1.521,4.838c0,0,0,0,0.189,1.404c0.299,2.791,0.299,2.791,0.299,2.791
			c-0.488,2.152,1.152,4.082,1.627,4.461c0.48,0.361,4.49-0.725,6.027-1.098c0.645-0.146,1.43-0.502,2.189-0.879
			c7.162-12.004,12.811-25.021,16.699-38.754C365.016,223.764,364.727,223.732,364.454,223.74z"/>
		<path fill="#DCDDDD" d="M96.539,227.896c-0.222,0.437,2.67,3.42,3.809,4.431c1.116,1.024,3.501,5.887,3.992,7.483
			c0.481,1.605,0.199,4.213,0.034,4.832c-0.146,0.613,0.547,1.957,0.667,2.523c0.092,0.561-1.006,5.336-0.587,7.256
			c0.425,1.916-2.237,7.91-2.186,10.883c0.068,2.98,1.414,6.855,1.958,6.562c0.536-0.291,0.724,2.709-0.188,3.062
			c-0.902,0.366-1.955,2.729-1.45,2.854c0.514,0.125-0.031,2.461,0.106,3.395c0.129,0.943,0.926,7.115,1.095,8.648
			c0.187,1.545,2.377,5.295,2.834,6.562c0.46,1.282,0.938,3.688,1.112,4.053c0.17,0.371,0.403,0.746,0.42,0.768
			c0.047,0.014,1.82,0.674,2.324,1.062c0.529,0.379,3.996,0.145,5.136-0.088c1.134-0.24,0.099-1.271-0.417-1.836
			c-0.514-0.568-0.972-3.308-1.562-3.589c-0.583-0.264-0.834-3.764-0.321-4.532c0.521-0.777,2.592-2.013,2.828-2.66
			c0.212-0.646,0.287-3.688-0.271-4.107c-0.562-0.414,0.155-4.107-0.258-5.941c-0.417-1.824,3.188-3.504,3.396-4.957
			c0.197-1.439,4.105-3.012,4.985-3.742c0.887-0.729,1.656-4.891,1.233-5.795c-0.423-0.885,1.442-1.612,2.272-1.612
			c0.829,0,1.771-0.599,2.092-0.599c0.312-0.012,1.306-1.854,1.834-2.271c0.531-0.428,1.636-4.824,2.597-5.547
			c0.969-0.728,1.779-3.388,1.779-4.152c0-0.78,1.479-3.104,1.961-3.795c0.48-0.698,4.132-2.366,4.789-2.629
			c0.646-0.272,1.637-6.125,1.89-8.228c0.252-2.104,1.344-4.908,1.426-5.6c0.068-0.697,1.237-1.281,1.454-1.508
			c0.222-0.225,1.086-2.896,1.647-3.52c0.555-0.606,2.569-3.164,2.617-3.729c0.049-0.579,0.345-2.03,0.688-3.26c0,0,0,0-0.012-1.431
			c0.012-2.283,0.012-2.283,0.012-2.283c-0.64-1.762-2.589-3.967-3.086-3.477c-0.494,0.479-2.751-1.562-3.902-2
			c-1.155-0.422-4.021-0.775-4.741-0.775c-0.733,0-3.237-2.059-4.359-2.42c-1.12-0.34-3.984-0.889-4.521-1.227
			c-0.523-0.34-1.224-4.602-3.529-5.994c-2.312-1.396-6.361-4.646-6.812-5.846c-0.439-1.188-4.868-3.7-6.255-4.453
			c-1.354-0.76-3.438-0.929-3.695-0.652c-0.272,0.252-1.977-2.314-2.852-3.057c-0.883-0.71-3.542-1.32-3.662-0.676
			c-0.125,0.652-1.88,0.314-2.3-0.249c-0.411-0.544-1.779,0.231-2.424,0.438c-0.643,0.206-2.854,3.57-3.857,4.396
			c-1.025,0.8-2.226-0.753-2.893-1.046c-0.673-0.287-3.216,0.508-3.909,0.99c-0.69,0.498-2.307-3.562-1.936-5.434
			c0.374-1.863-1.664-5.579-3.248-5.677c-1.569-0.089-2.063-3.998-1.757-5.442c0.32-1.433-2.85-2.341-3.644-2.429
			c-0.812-0.112-2.777,1.922-3.103,2.888c-0.348,0.973-7.525-1.324-6.675-5.631c0.837-4.301,4.238-8.754,5.087-9.284
			c0.841-0.516,5.464-0.773,6.479-0.197c1.021,0.594,1.948-0.018,2.121-0.27c0.16-0.272,3.93,0.043,5.058,0.496
			c1.12,0.461,2.735,4.799,3.896,5.335c1.174,0.547,1.594-2.806,1.775-3.619c0.195-0.811-0.562-2.883-0.846-3.468
			c-0.287-0.575,1.864-5.852,3.639-6.745c1.746-0.896,3.608-3.831,3.461-4.354c-0.163-0.513,1.407-0.92,1.82-1.141
			c0.427-0.209-0.063-4.479,0.633-5.406c0.69-0.92,3.992-2.874,5.044-3.314c1.037-0.438,1.829-3.126,1.454-3.603
			c-0.383-0.479,2.693-3.101,4.304-3.607c1.595-0.489,2.977,0.917,2.587,1.146c0.314-0.181,2.525-1.323,3.467-1.941
			c1.095-0.723,0.019-2.721-0.696-3.315c-0.695-0.573-0.272-2.889,0.576-3.098c0.85-0.21,1.589-2.209,1.367-2.641
			c-0.229-0.436,3.521,0.338,4.95-0.717c1.41-1.055,0.409,2.539-0.638,3.986c-1.035,1.453,0.771,2.828,1.446,2.551
			c0.654-0.281,1.376,0.771,1.508,1.181c0.135,0.398,1.59-0.427,2.523-0.017c0.949,0.415,1.508-1.293,1.584-2.072
			c0.062-0.791-2.27-2.425-2.63-3.37c-0.354-0.938-0.517-6.437-0.561-7.567c-0.058-1.123-1.564-2.954-2.054-2.624
			c-0.49,0.307-1.479-2.933-2.26-3.626c-0.791-0.71-0.963-2.265-0.937-2.785c0.037-0.524-2.662-3.341-3.312-4.647
			c-0.648-1.301-1.543-1.034-1.607-0.438c-0.069,0.604-1.941,0.682-2.711,0.609c-0.771-0.068-1.403-3.052-1.403-4.178
			c0-1.12-3.479-1.312-4.048-2.224c-0.565-0.897-2.827-0.477-3.195-1.104c-0.359-0.621-2.372-1.201-2.754-0.963
			c-0.42,0.229-0.224,8.296-0.601,10.479c-0.394,2.172-2.224,4.092-2.91,4.031c-0.658-0.043-0.266,1.557,0.199,1.41
			c0.476-0.145-1.313,2.378-1.537,4.028c-0.241,1.653-1.914-0.072-2.186-1.565c-0.281-1.504-1.917-3.528-2.225-3.02
			c-0.316,0.51-1.443-0.61-1.938-0.292c-0.485,0.313-3.585-1.803-4.845-2.488c-1.244-0.658-1.955-4.504-2.659-4.839
			c-0.729-0.35-0.121-0.806-0.145-1.396c-0.026-0.573,2.42-2.817,3.163-3.69c0.734-0.9,3.419-4.388,4.482-5.139
			c1.069-0.754,1.894-2.748,1.717-3.121c-0.188-0.358,4.559-1.84,5.84-2.283c1.283-0.444,2.394-4.021,2.562-5.052
			c0.181-1.029-0.811-2.976-1.39-3.229c-0.604-0.258,1.782-0.347,2.569,0.056c0.794,0.391,3.249-0.729,4.208-0.209
			c0.951,0.504,2.911,1.655,4.324,2.559c0,0,0,0-0.307,2.625c-0.575,4.453-0.575,4.453-0.575,4.453
			c-3.737,1.554-4.812,4.215-3.505,4.17c1.314-0.063,7.271,2.578,8.961,3.782c1.684,1.215,2.209-1.739,2.708-2.729
			c0.499-0.972,0.339-3.829-0.062-4.396c-0.407-0.573,1.953-0.372,2.608,0.258c0.657,0.637,1.438-0.65,1.946-0.874
			c0.502-0.229,0.762-2.682,1.04-3.169c0.264-0.504-1.126-1.003-1.162-1.61c-0.048-0.619-2.723-1.773-3.59-2.198
			c-0.883-0.413-1.081-2.258-0.642-2.582c0.413-0.319-0.306-2.676-0.74-3.449c-0.415-0.776-3.228-1.404-4.158-1.404
			c-0.928,0-1.894-2.169-2.438-2.479c-0.533-0.312-4.135-0.712-5.007-0.444c-0.896,0.258-2.529-2.558-4.031-1.694
			c-1.493,0.863-3.038-1-3.72-1.378c-0.683-0.366-4.191,3.398-4.162,6.046c0.036,2.668,1.369,5.227,1.916,5.299
			c0.557,0.08-0.121,2.474-0.734,3.155c-0.614,0.679-2.083-0.722-1.521-1.323c0.549-0.603-1.53-3.385-2.247-4.506
			c-0.504-0.812-2.336-1.541-3.573-2.034c-0.726,0.785-1.438,1.589-2.136,2.394c0.274,0.967,0.593,2.224,0.281,3.173
			c-0.518,1.615-1.87,1.857-1.942,1.163c-0.043-0.312-0.724-0.545-1.528-0.656c-19.658,23.572-32.749,52.786-36.49,84.812
			c0.787,0.896,1.673,1.957,1.912,2.718c0.44,1.425,2.925,2.355,3.393,2.651c0.446,0.273,0.618-2.729,0.28-3.521
			c-0.32-0.785,0.604-1.249,0.587-0.673c-0.016,0.574,2.331,3.227,3.104,4.188c0.767,0.951,1.568,7.145,2.307,8.478
			c0.746,1.316,7.887,4.08,10.195,4.556c2.296,0.487,5.188,3.066,5.643,3.807c0.453,0.741,3.5,1.111,4.164,1.403
			c0.656,0.305,2.222,2.378,2.872,2.811c0.646,0.438,1.17,1.667,1.17,1.999c0,0.322,4.032,1.854,5.01,2.932
			c0.972,1.077,2.586,0.784,2.896,0.326c0.305-0.455,1.102,2.141,1.526,3.043c0.397,0.896,0.498,3.104,0.185,3.456
			c-0.31,0.347-0.896,4.399-1.581,5.215c-0.687,0.812-2.113,6.712-1.808,7.872c0.311,1.167,2.204,3.566,3.032,3.932
			c0.805,0.358,0.462,1.623-0.183,1.711c-0.646,0.076-0.343,5.711,1.179,6.549C95.485,224.971,96.764,227.462,96.539,227.896z"/>
		<path fill="#DCDDDD" d="M115.636,129.062h0.008C115.589,129.085,115.579,129.09,115.636,129.062z"/>
		<path fill="#DCDDDD" d="M104.547,60.626c1.942-0.32,5.176-0.865,5.396-1.412c0.159-0.441,0.182-1.779-0.188-2.243
			c0.312,0.021,0.668,0.034,0.936,0.034c0.751,0,1.972-4.038,2.745-4.983c0.777-0.939,5.223-2.339,6.275-2.975
			c1.063-0.65,3.376-2.877,4.27-3.129c0.892-0.271,2.188-2.352,1.979-2.77c-0.185-0.403,3.013-2.354,4.233-2.864
			c1.211-0.521,1.844-1.945,1.395-1.994c-0.301-0.049-7.08,3.498-13.279,7.021c-7.085,4.809-13.741,10.188-19.968,16.026
			C100.276,61.195,103.272,60.839,104.547,60.626z"/>
		<path fill="#DCDDDD" d="M221.898,262.581c2.074-1.228,5.604-6.438,6.761-7.535c1.156-1.098,2.002-5.051,2.26-5.912
			c0.226-0.864,1.994-2.264,2.652-2.45c0.652-0.185,2.758-8.933,4.6-10.843c1.854-1.912,4.021-11.159,3.783-14.491
			c-0.229-3.312,1.195-9.66,1.631-11.188c0.443-1.521,2.756-4.229,3.478-4.788c0.713-0.564,5.176-7.161,6.61-9.521
			c1.433-2.377,2.808-7.576,2.531-8.787c-0.272-1.217-3.385-2.068-3.965-1.467c-0.578,0.604-3.502,1.101-4.436,1.101
			c-0.943,0-3.082-5.016-4.414-6.048c-1.322-1.021-2.521-6.757-3.293-7.843c-0.766-1.086-2.896-3.834-3.572-4.464
			c-0.659-0.625-0.789-3.671-0.938-4.511c-0.146-0.817,1.297,0.553,1.539,1.763c0.256,1.217,3.685,6.104,4.748,7.742
			c1.064,1.646,3.859,6.886,4.582,8.531c0.724,1.633,6.953,0.799,8.98-0.146c2.021-0.969,4.549-2.582,4.641-3.146
			c0.092-0.562,3.32-2.04,4.213-2.764c0.902-0.719,1.691-4.464,2.277-5.065c0.586-0.604-0.469-4.188-1.146-5.252
			c-0.664-1.063-3.897-1.915-4.551-1.499c-0.664,0.418-2.057-2.398-2.545-3.424c-0.492-1.057-2.975-2.315-3.246-3.021
			c-0.262-0.722,0.67-1.837,1.062-2.077c0.391-0.253,4.943,2.951,6.271,4.545c1.299,1.594,2.803,4.521,3.062,5.034
			c0.229,0.507,3.84,0.769,4.646,0.172c0.797-0.587,1.723-0.433,2.037,0.335c0,0,0,0,1.137-0.196
			c3.951-0.616,3.951-0.616,3.951-0.616c1.861,2.022,2.414,3.775,2.355,4.187c-0.037,0.391,1.15,2.037,1.912,2.209
			c0.771,0.186,1.32,2.77,1.566,3.41c0.229,0.636,2.481,4.508,2.94,6.138c0.465,1.633,2.383,4.808,2.847,5.658
			c0.456,0.854,0.834,3.32,0.834,3.994c0,0.664,1.438,1.994,2.35,1.934c0.889-0.062,2.713-5.723,3.135-7.823
			c0.416-2.109,1.871-3.854,2.273-3.854c0.416,0,0.748-1.183,0.748-1.633c0-0.443,2.287-0.393,2.498-0.975
			c0.188-0.572,0.868-4.312,1.688-4.879c0.813-0.57,3.714-2.479,4.733-2.82c1.021-0.361,3.605,1.883,4.201,2.929
			c0.566,1.043,1.104,3.713,0.883,4.145c-0.225,0.44,1.359,2.735,2.752,2.695c1.383-0.046,1.814,1.754,1.857,2.396
			c0.061,0.646,1.865,2.504,2.232,3.336c0.369,0.828,0.258,3.095,0.016,3.604c-0.254,0.511-0.082,3.479,0.188,4.312
			c0.266,0.826,4.521,5.136,6.107,6.454c1.604,1.298,2.357-2.682,1.531-3.915c-0.811-1.238-3.596-4.11-4.242-4.966
			c-0.652-0.868-0.771-4.318-0.514-5.278c0.223-0.966,2.414,0.539,3.322,1.229c0.922,0.703,2.104,2.248,2.145,2.771
			c0.033,0.513,5.732-2.674,5.938-6.147c0.189-3.465,2.098-7.376,2.283-8.29c0.188-0.917-0.564-2.159-1.047-2.202
			c-0.488-0.047,0.854-2.646,2.445-2.605c1.605,0.055,5.445-4.241,6.361-5.935c0.908-1.705,2.75-3.109,2.945-3.324
			c0.219-0.197,1.502-4.229,1.727-5.896c0.223-1.657-0.939-4.264-1.074-5.126c-0.131-0.854-1.512-2.843-1.877-3.465
			c-0.352-0.622-0.688-2.951-0.473-3.393c0.213-0.421,1.66-0.893,1.811-1.275c0.152-0.396,1.809-2.146,1.695-2.927
			c-0.137-0.78,1.016,1.001,1.77,1.644c0.754,0.647,1.566,4.779,2.514,5.235c0.922,0.455,4.707-4.385,4.252-7.51
			c-0.467-3.123,1.09-7.12,2.006-7.487c0.688-0.264,2.467-2.785,3.684-4.6c-8.33-24.057-22.141-45.542-39.963-62.984
			c-0.215,0.014-0.422,0.018-0.625-0.021c-1.383-0.289-1.383-0.289-1.383-0.289c-2.324-0.502-3.684-2.992-3.275-3.564
			c0.115-0.181,0.104-0.597-0.014-1.095c-1.305-1.17-2.629-2.315-3.982-3.444c-1.105-0.023-2.256,0-2.939-0.023
			c-1.395-0.061-4.416-1.057-4.957-1.597c-0.547-0.535-2.369,0.485-2.479,1.487c-0.131,1.012-3.301,1.474-3.59,2.247
			c-0.324,0.762-1.959,0.812-2.271,0.381c-0.318-0.433-3.266,1.044-4.729,1.259c-1.467,0.206-4.194,1.396-4.854,1.688
			c-0.648,0.286-2.209,1.806-2.466,2.436c-0.237,0.636-2.13,1.686-2.729,1.929c-0.607,0.238-0.475,2.979,0.298,3.364
			c0.776,0.372-1.453-0.329-2.423-0.834c-1.004-0.501-2.082,1.16-2.391,1.742c-0.311,0.562-1.207-0.354-1.18-1.163
			c0.035-0.82-2.424-1.477-2.743-0.828c-0.329,0.65-2.032-0.219-2.741-0.584c-0.703-0.377-3.756,2.812-4.896,3.956
			c-1.127,1.135-6.539,2.032-7.559,1.597c-1.019-0.424-2.013,2.401-1.146,2.597c0.854,0.172-2.201-0.148-3.876,0.012
			c-1.688,0.169-6.582,2.123-7.752,2.991c-1.17,0.869-2.106-0.194-2.106-0.859c0-0.677-1.865-1.289-2.416-1.476
			c-0.55-0.191-1.642,3.655-2.604,4.396c-0.965,0.757-2.139-3.003-4.422-3.614c-2.279-0.616-5.848-2.812-6.87-3.079
			c-1.003-0.271-3.038-2.4-3.618-3.021c-0.572-0.622-3.49-1.124-4.426-1.124c-0.944,0-3.96,1.734-4.765,2.407
			c-0.833,0.688-2.044,0.554-2.441,0.798c-0.41,0.24-3.832,3.596-5.146,4.639c-1.324,1.048-3.647,5.565-4.396,6.644
			c-0.768,1.069-1.848,1.271-2.293,1.301c-0.438,0.031-0.806,1.229-0.806,1.668c0,0.446-3.934,2.483-4.335,4.269
			c-0.419,1.777,0.381,5.855,0.381,7.309c0,1.442,1.462,4.312,2.549,4.36c1.079,0.051,0.521,2.454,0.23,3.127
			c-0.287,0.688,0.688,1.428,0.647,1.996c-0.016,0.581-2.755,1.389-3.589,1.715c-0.854,0.308-2.218,2.219-2.39,2.918
			c-0.152,0.617-2.771,1.06-3.638,1.889c0.216-0.591,0.499-1.425,0.743-1.893c0.5-0.948-0.188-2.609-0.604-2.947
			c-0.403-0.349-0.604-5.062-1.271-6.078c-0.659-1.019-2.308-2.724-2.713-3.062c-0.405-0.326,0.283-1.568,0.519-2.099
			c0.237-0.521-2.197-0.834-2.864-0.438c-0.667,0.385-1.032,5.056-1.309,6.337c-0.273,1.274,1.207,3.236,1.613,3.329
			c0.391,0.099,0.286,2.397-0.562,2.474c-0.861,0.086-1.646,3.438-1.205,4.204c0.441,0.768-0.609,2.271-1.118,2.619
			c-0.511,0.341,3.275,0.15,5.021,0.103c1.72-0.043,3.068,0.73,2.894,0.877c-0.187,0.14-3.314,0.604-3.871,1.344
			c-0.553,0.736-2.677,2.166-3.095,2.739c-0.41,0.565,0.697,1.832,1.604,1.769c0.897-0.053,1.924,3.109,2.63,3.693
			c0.693,0.593,0.436,2.229,0.129,2.68c-0.312,0.441-4.539-0.31-6.141,0.093c-1.606,0.393-3.64,3.794-3.771,5.077
			c-0.146,1.282,0.25,4.967,0.462,5.979c0.208,1.021,3.57,1.656,4.245,2.155c0.69,0.491,3.905,0.014,4.589,0.326
			c0.646,0.314,2.826-3.27,3.263-4.919c0.405-1.673,3.848-4.702,4.562-5.841c0.712-1.132,4.408-1.001,5.31-1.599
			c0.921-0.576,0.406,2.808,0.85,4.665c0.418,1.871,3.967,1.644,3.447-0.117c-0.521-1.74,0.351-2.508,0.49-1.868
			c0.157,0.621,3.55,2.021,4.198,3.002c0.632,0.986,0.451,3.066-0.304,3.054c-0.75-0.034-0.788,2.287,0.023,2.543
			c0.787,0.238,1.854-2.611,2.724-3.039c0.846-0.437,1.543-2.212,1.144-2.346c-0.389-0.146,0.719-1.729,1.218-1.206
			c0.484,0.524-1.818-3.473-3.266-4.932c-1.448-1.458-0.429-0.802,2.271,1.438c0,0,0,0,1.869,2.62
			c0.368,0.467,0.843,1.898,1.167,2.421c0.438,0.771,0.438,0.771,0.438,0.771c0.362,0.92,0.688,3.425,0.688,4.105
			c0,0.664,1.461,1.997,2.343,1.938c0.896-0.062,1.564,0.425,1.391,0.452c-0.188,0.034,0.579,1.771,1.472,1.812
			c0.877,0.039,1.261-2.237,0.366-2.301c-0.888-0.044-0.739-3.34-0.866-4.765c-0.097-1.436,0.646-2.613,0.948-2.613
			c0.307,0-0.036,2.945-0.009,3.629c0.009,0.674,0.382,2.013,0.797,2.979c0,0,0,0,0.919,0.685c2.048,1.582,2.048,1.582,2.048,1.582
			c2.938-0.87,6.887-0.202,6.734,0.396c-0.166,0.599,2.171,0.745,2.312-0.228c0.133-0.956,0.235,0.025,0.235,0.705
			c0,0.658-1.926,3.272-2.233,4.493c-0.334,1.203-7.102,0.388-10.024,0.157c-2.92-0.215-7.222,0.782-7.555,1.646
			c-0.324,0.873-4.881-2.007-6.966-2.883c-2.101-0.874-3.737-4.061-4.158-4.468c-0.433-0.43,0.354-1.446,0.154-2.083
			c-0.197-0.631-4.966-0.763-6.34-0.25c-1.396,0.514-8.543,1.264-10.231,2.01c-1.696,0.756-4.244-0.047-5.035-0.184
			c-0.793-0.146-2.684,2.188-3.642,2.606c-0.968,0.431-2.187,3.729-2.709,7.361c0,0,0,0-1.299,2.536c-0.85,1.61-0.85,1.61-0.85,1.61
			c-2.354,1.8-4.966,7.781-5.739,8.985c-0.757,1.201-1.376,9.829-1.376,12.734c0,2.898,2.524,9.051,3.241,10.729
			c0.725,1.703,5.104,5.451,6.562,6.354c1.461,0.877,6.216,1,7.774,1c1.549-0.012,3.332-1.487,3.933-3.29c0,0,0,0,2.29,0.227
			c1.057,0.106,1.057,0.106,1.057,0.106c0.047,1.277,3.42,2.304,4.25,2.755c0.82,0.442,3.044,0.104,3.703-0.093
			c0.661-0.188,1.398,5.771,0.921,7.49c-0.474,1.726,1.174,7.766,1.646,9.586c0.495,1.817,2.566,6.793,2.783,8.579
			c0.192,1.779-1.221,7.72-1.457,9.798c-0.229,2.086,2.583,7.896,3.34,9.896c0.729,2.002,1.348,6.297,1.348,7.293
			c0,1.006,3.087,7.021,3.788,9.482C212.069,263.204,219.817,263.807,221.898,262.581z"/>
		<path fill="#DCDDDD" d="M355.655,188.917c0.213,0.44,2.152-1.108,3.33-1.286c1.168-0.181,1.898-3.327,0.992-3.536
			c-0.932-0.256-2.088-2.665-2.74-2.958c-0.656-0.295-1.947,1.032-1.896,1.986c0.053,0.954-2.123,1.341-2.539,2.132
			c-0.404,0.794-0.381,1.367,0.068,1.287C353.301,186.463,355.467,188.475,355.655,188.917z"/>
		<path fill="#DCDDDD" d="M353.266,205.961c0.582-0.229-0.068-3.316-1.271-3.572c-1.225-0.257-4.578,4.082-3.943,6.574
			c0.643,2.485,1.35,2.342,1.691,1.812c0.35-0.529,2.35,0.336,2.939,0.539c0.586,0.188,0.586-0.414,0-1.33
			C352.09,209.066,352.692,206.17,353.266,205.961z"/>
		<path fill="#DCDDDD" d="M346.635,202.938c0.131-1.104,0.348-4.565,0.539-5.265c0.176-0.694-1.883-2.671-2.91-3.03
			c-1.012-0.351-4.291,6.739-6.631,8.002c-2.359,1.267-3.199,5.58-2.592,6.58c0.635,0.998,5.523,1.524,6.383,2.28
			c0.869,0.745,1.809-0.12,2.318-0.249c0.52-0.126,0.355-0.453,0.162-0.585c-0.199-0.12,1.705-2.134,1.979-3.415
			C346.149,205.993,346.481,204.032,346.635,202.938z"/>
		<path fill="#DCDDDD" d="M333.301,214.747c-1.848-0.688-3.992,0.394-4.164,1.098c-0.184,0.714,7.08,1.871,9.492,2.521
			c2.396,0.651,3.895,0.864,3.352,0.458C341.426,218.417,335.135,215.449,333.301,214.747z"/>
		<path fill="#DCDDDD" d="M348.034,167.54c0.586-0.81-0.812-4.605-1.521-3.748c-0.688,0.855-0.188,3.078,0.035,3.854
			C346.766,168.402,347.448,168.357,348.034,167.54z"/>
		<path fill="#DCDDDD" d="M352.411,175.686c0.416-0.971-0.521-2.058-2.09-2.387c-1.578-0.326-1.352,4.396-0.648,5.003
			C350.344,178.893,351.975,176.68,352.411,175.686z"/>
		<path fill="#DCDDDD" d="M360.573,204.95c1.879,1.312,6.066,0.707,6.199-1.828C364.924,201.9,360.417,202.116,360.573,204.95z"/>
		<path fill="#DCDDDD" d="M359.559,147.053c-0.781,0.545-1.191,1.94-0.943,2.499c-0.109-0.002-0.217-0.009-0.328-0.009
			c-0.623,0-0.689,2.471-0.029,2.892c0.645,0.434,2.23-1.931,3.062-2.48c0.826-0.562,2.488-0.908,2.738-0.729
			c0.256,0.185,1.709-0.264,3.242-0.972c0.271-0.126,0.592-0.536,0.904-1.105c-0.354-1.806-0.799-3.592-1.227-5.377
			c-0.787,0.576-1.664,1.195-2.07,1.562C364.077,144.083,360.581,146.349,359.559,147.053z"/>
		<path fill="#DCDDDD" d="M316.67,196.865l0.021,0.011C316.362,196.633,316.321,196.617,316.67,196.865z"/>
		<path fill="#DCDDDD" d="M328.362,207.747c-0.676-1.537-2.93-4.129-4.992-5.777c0,0,0,0-0.793-1.278
			c-0.852-1.426-0.852-1.426-0.852-1.426c-0.77-1.561-3.096-2.764-3.299-3.222c-0.195-0.453-0.943,1.353-1.736,0.83
			c0.42,0.284,1.283,0.906,2.506,1.771c2.191,1.562,6.391,12.131,7.354,12.863C327.489,212.262,329.045,209.293,328.362,207.747z"/>
		<path fill="#DCDDDD" d="M294.86,190.68c-0.582,1.197,3.113,3.725,3.396,3.15c0.309-0.581-0.475-3.518-1.127-4.16
			C296.478,189.034,295.458,189.484,294.86,190.68z"/>
		<path fill="#DCDDDD" d="M245.84,247.134c0.146,1.248,2.701,2.244,3.433,2.046c0.758-0.216,2.808-4.007,3.095-5.099
			c0.286-1.104,0.522-3.449,0.522-4.017c0-0.553,0.338-1.811,0.631-1.975c0.267-0.141,0.737-1.438,1.035-2.854
			c0.278-1.443-1.539-8.111-1.601-9.271c-0.031-1.178-1.354,0.604-1.699,1.783c-0.351,1.186-3.655,3.6-4.399,4.604
			c-0.729,1.006-1.545,4.406-1.267,4.996c0.279,0.592-0.278,2.906-0.623,3.562C244.646,241.555,245.702,245.859,245.84,247.134z"/>
		<path fill="#DCDDDD" d="M126.21,293.255c0.739,0,1.463,0,2.232,0C128.839,290.846,126.089,291.236,126.21,293.255z"/>
		<path fill="#DCDDDD" d="M185.675,42.193c-0.938,0.114-3.358-0.376-3.775-0.815c-0.405-0.438-4.038-0.831-5.083-0.396
			c-1.049,0.444-0.328-2.548,1.127-2.864c1.457-0.33,0.22-2.396-1.331-2.396c-1.55-0.014-5.376-0.573-6.276-0.372
			c-0.903,0.2-2.649-0.624-3.303-0.722c-0.633-0.089-5.229,1.375-7.404,1.27c-2.171-0.092-7.518,0.126-8.659,0.443
			c-1.182,0.31-2.01,2.568-1.841,3.373c0.165,0.809-5.179,0.791-6.847,0.809c-1.688,0.028-10.622,1.934-12.96,3.212
			c-2.34,1.28-4.165,4.57-3.392,4.636c0.773,0.062-1.305,1.927-2.553,2.361c-1.262,0.43-4.25,0.623-4.965,1.327
			c-0.695,0.699,0.757,1.189,1.033,1.662c0.279,0.467,1.108-0.413,1.908,0.043c0.784,0.438,3.396,0.656,4.085,0.923
			c0.691,0.272-2.214,0.825-3.582,0.923c-1.362,0.097-1.05,2.776,0.059,3.146c1.115,0.378,3.984,0.771,4.275,0.31
			c0.297-0.468,3.41,0.512,4.812,0.673c1.396,0.149,2.473,3.659,2.896,4.432c0.434,0.762,0.521,3.433,0.418,4.212
			c-0.103,0.771,2.477,2.184,2.941,1.688c0.461-0.486,0.336,1.218-0.7,1.131c-1.021-0.094-0.354,2.882,0.917,3.313
			c1.271,0.416,0.401,2.253-0.331,2.806c-0.746,0.553-0.347,2.303-1.09,2.938c-0.747,0.611,2.673,6.537,2.646,9.582
			c-0.021,3.03,1.87,5.521,2.604,5.521c0.728,0,3.229,0.616,3.558,1.268c0.329,0.646,1.547-0.453,2.012-0.952
			c0.469-0.495,1.494-1.959,2.256-3.249c0.772-1.292,2.49-7.396,2.719-8.044c0.23-0.658,3.103-0.243,3.754-0.584
			c0.648-0.335,2.525-1.812,3.062-2.252c0.533-0.439,4.617-2.167,5.739-2.979c1.115-0.8,2.973-4.268,3.837-5.006
			c0.864-0.734-0.441-0.521-1.537-1.233c-1.079-0.712-0.599-1.582-0.286-1.917c0.312-0.344,3.602,0.552,4.739,0.983
			c1.146,0.452,3.304-1.113,2.482-1.728c-0.848-0.601-0.403-0.579,0-0.327c0.396,0.253,0.818-2,0.387-2.421
			c-0.439-0.439,3.336-3.188,2.671-5.783c-0.661-2.602,1.027-5.267,2.037-5.298c1.014-0.028,0.722-2.938-0.492-3.212
			c-1.203-0.271-0.071-0.534,0.385-0.952c0.449-0.406,1.022-3.006,0.769-3.496c-0.274-0.504,1.849-1.068,2.206-1.659
			c0.396-0.579,2.813-1.751,3.68-1.944C186.132,44.368,186.592,42.086,185.675,42.193z"/>
		<path fill="#DCDDDD" d="M206.807,44.319c-1.152-0.399-3.493,0.893-3.199,1.61c0.306,0.731-1.908-0.929-3.456-0.14
			c-1.547,0.812-1.964,3.51-1.256,3.868c0.705,0.35,1.227,2.501,1.24,2.917c0.021,0.422,2.993,0.114,3.766-0.511
			c0.752-0.625,0.645,2.185-0.094,2.938c-0.75,0.76,0.264,2.278,1.094,2.407c0.831,0.111,1.954,2.071,2.812,2.052
			c0.845-0.021,2.305-3.304,2.634-4.53c0.336-1.221,3.18-0.255,4.475,0.132c1.294,0.391,1.779-4.51,0.365-5.252
			c-1.399-0.726-3.167-0.367-3.746-0.929c-0.583-0.562-1.569-1.087-2.226-1.188C208.557,47.603,207.954,44.703,206.807,44.319z"/>
		<path fill="#DCDDDD" d="M218.145,46.661c2.282,0.316,4.855-1.562,5.414-2.102c0.562-0.52-6.34-1.935-8.979-2.018
			c-2.622-0.078-4.736,0.271-4.708,0.803C209.916,43.858,215.844,46.331,218.145,46.661z"/>
		<path fill="#DCDDDD" d="M176.372,108.583c-0.604-0.247-0.936,2.012-0.797,2.873c0.141,0.854,2.247,0.786,3.146,0.631
			c0.894-0.146,1.596-0.88,1.563-1.631c-0.048-0.735-1.324-4.108-1.833-4.108C177.942,106.347,176.979,108.823,176.372,108.583z"/>
		<path fill="#DCDDDD" d="M183.151,82.25c-0.474-0.837-4.057-0.733-4.945-0.785c-0.864-0.052-3.551-0.942-4.061-1.521
			c-0.49-0.563-0.9,2.219-1.711,2.57c-0.827,0.363,0.396,0.895,0.745,0.596c0.326-0.292-0.028,1.438-0.398,2.022
			c-0.362,0.597,2.395,1.01,2.705,1.906c0.308,0.895,1.444,1.476,2.542,1.305c1.079-0.182,3.238-1.299,3.999-1.367
			C182.794,86.893,183.628,83.076,183.151,82.25z"/>
		<path fill="#DCDDDD" d="M258.571,61.678c1.236-1.238,6.311-2.905,6.879-4.192c0.578-1.27-0.354-2.312-0.859-2.312
			c-0.521,0-1.151,0.643-1.264,0.846c-0.135,0.213-5.959,1.585-7.734,2.444c-1.811,0.854-3.875,2.187-4.625,2.952
			c-0.752,0.754-1.981,6.523-2.424,7.188c-0.426,0.647,1.938,2.997,2.996,3.653c1.041,0.642,2.494,0.304,2.896,0.181
			c0.401-0.129-0.543-4.164-1.09-5.562C252.792,65.469,257.338,62.94,258.571,61.678z"/>
		<path fill="#DCDDDD" d="M252.344,46.629c1.912,1.902,2.964-0.843,5.062-0.568C257.375,42.193,252.146,43.52,252.344,46.629z"/>
		<path fill="#DCDDDD" d="M289.599,47.348c-0.056,0.719,5.305,1.289,6.879,1.012c1.562-0.267-0.332-2.711-2.627-2.566
			C291.573,45.948,289.663,46.646,289.599,47.348z"/>
		<path fill="#DCDDDD" d="M95.473,87.111c-0.568,0.521-0.07,3.154,1.005,3.229c1.065,0.077,2.777-3.967,4.101-3.155
			c1.313,0.812,2.196,1.126,1.979,0.702c-0.221-0.428-3.963-2.069-4.42-2.367C97.674,85.233,96.048,86.603,95.473,87.111z"/>
		<path fill="#DCDDDD" d="M109.188,176.139c0,0.45,2.335,0.381,2.719-0.338c0.367-0.714,0.175-1.295-0.458-1.295
			C110.837,174.506,109.188,175.686,109.188,176.139z"/>
		<path fill="#DCDDDD" d="M98.775,172.296c1.123-0.215,0.597,1.602,0.864,2.241c0.268,0.648,2.949,1.177,3.486,1.619
			c0.536,0.438,1.921-0.82,2.991-0.688c1.073,0.129-0.35-3.708-2.144-3.599c-1.81,0.11-3.232-1.628-3.647-1.854
			c-0.439-0.188-2.515-1.459-3.115-1.934c-0.586-0.482-5.17-0.896-6.729-0.896c-1.557,0-3.271,1.603-3.505,2.112
			c-0.257,0.522,2.462,0.876,3.23,0.461c0.777-0.401,4.408,0.462,5.151,1.332C96.107,171.972,97.644,172.511,98.775,172.296z"/>
		<path fill="#DCDDDD" d="M93.883,176.139c0,0.45,2.365,0.163,2.933,0.188c0.574,0.009,0.556-0.385-0.047-0.854
			C96.172,174.99,93.883,175.686,93.883,176.139z"/>
		<path fill="#DCDDDD" d="M95.556,163.995c-0.617-0.237-1.108,0.725-1.108,1.181c0,0.453,0.34,0.822,0.743,0.822
			C95.62,165.998,96.172,164.245,95.556,163.995z"/>
		<path fill="#DCDDDD" d="M100.504,164.374c-0.208-0.459-1.22-0.823-1.521-0.823c-0.312,0-0.524,0.788-0.465,1.726
			C98.564,166.233,100.707,164.823,100.504,164.374z"/>
		<path fill="#DCDDDD" d="M104.071,169.855c0.947-0.456,1.062-1.599,0.498-1.539c-0.57,0.062-1.622-1.645-2.229-1.88
			c-0.622-0.249-1.108,1.016-1.108,1.573c0,0.55,0.342,0.935,0.77,0.826C102.404,168.723,103.103,170.307,104.071,169.855z"/>
		<path fill="#DCDDDD" d="M367.67,206.918c-0.492,0.262-2.873,0.541-3.184,0.074c-0.312-0.471-0.785,0.965-1.305,1.191
			c-0.494,0.236-0.229,1.479,0.541,1.099c0.525-0.271,2.781,0.981,4.617,2.138c0.355-1.814,0.676-3.64,0.98-5.484
			C368.661,206.288,367.975,206.752,367.67,206.918z"/>
	</g>
	<g>
		<path fill="#DCDDDD" d="M96.539,227.896c-0.222,0.437,2.67,3.42,3.809,4.431c1.116,1.024,3.501,5.887,3.992,7.483
			c0.481,1.605,0.199,4.213,0.034,4.832c-0.146,0.613,0.547,1.957,0.667,2.523c0.092,0.561-1.006,5.336-0.587,7.256
			c0.425,1.916-2.237,7.91-2.186,10.883c0.068,2.98,1.414,6.855,1.958,6.562c0.536-0.291,0.724,2.709-0.188,3.062
			c-0.902,0.366-1.955,2.729-1.45,2.854c0.514,0.125-0.031,2.461,0.106,3.395c0.129,0.943,0.926,7.115,1.095,8.648
			c0.187,1.545,2.377,5.295,2.834,6.562c0.46,1.282,0.938,3.688,1.112,4.053c0.17,0.371,0.403,0.746,0.42,0.768
			c0.047,0.014,1.82,0.674,2.324,1.062c0.529,0.379,3.996,0.145,5.136-0.088c1.134-0.24,0.099-1.271-0.417-1.836
			c-0.514-0.568-0.972-3.308-1.562-3.589c-0.583-0.264-0.834-3.764-0.321-4.532c0.521-0.777,2.592-2.013,2.828-2.66
			c0.212-0.646,0.287-3.688-0.271-4.107c-0.562-0.414,0.155-4.107-0.258-5.941c-0.417-1.824,3.188-3.504,3.396-4.957
			c0.197-1.439,4.105-3.012,4.985-3.742c0.887-0.729,1.656-4.891,1.233-5.795c-0.423-0.885,1.442-1.612,2.272-1.612
			c0.829,0,1.771-0.599,2.092-0.599c0.312-0.012,1.306-1.854,1.834-2.271c0.531-0.428,1.636-4.824,2.597-5.547
			c0.969-0.728,1.779-3.388,1.779-4.152c0-0.78,1.479-3.104,1.961-3.795c0.48-0.698,4.132-2.366,4.789-2.629
			c0.646-0.272,1.637-6.125,1.89-8.228c0.252-2.104,1.344-4.908,1.426-5.6c0.068-0.697,1.237-1.281,1.454-1.508
			c0.222-0.225,1.086-2.896,1.647-3.52c0.555-0.606,2.569-3.164,2.617-3.729c0.049-0.579,0.345-2.03,0.688-3.26c0,0,0,0-0.012-1.431
			c0.012-2.283,0.012-2.283,0.012-2.283c-0.64-1.762-2.589-3.967-3.086-3.477c-0.494,0.479-2.751-1.562-3.902-2
			c-1.155-0.422-4.021-0.775-4.741-0.775c-0.733,0-3.237-2.059-4.359-2.42c-1.12-0.34-3.984-0.889-4.521-1.227
			c-0.523-0.34-1.224-4.602-3.529-5.994c-2.312-1.396-6.361-4.646-6.812-5.846c-0.439-1.188-4.868-3.7-6.255-4.453
			c-1.354-0.76-3.438-0.929-3.695-0.652c-0.272,0.252-1.977-2.314-2.852-3.057c-0.883-0.71-3.542-1.32-3.662-0.676
			c-0.125,0.652-1.88,0.314-2.3-0.249c-0.411-0.544-1.779,0.231-2.424,0.438c-0.643,0.206-2.854,3.57-3.857,4.396
			c-1.025,0.8-2.226-0.753-2.893-1.046c-0.673-0.287-3.216,0.508-3.909,0.99c-0.69,0.498-2.307-3.562-1.936-5.434
			c0.374-1.863-1.664-5.579-3.248-5.677c-1.569-0.089-2.063-3.998-1.757-5.442c0.32-1.433-2.85-2.341-3.644-2.429
			c-0.812-0.112-2.777,1.922-3.103,2.888c-0.348,0.973-7.525-1.324-6.675-5.631c0.837-4.301,4.238-8.754,5.087-9.284
			c0.841-0.516,5.464-0.773,6.479-0.197c1.021,0.594,1.948-0.018,2.121-0.27c0.16-0.272,3.93,0.043,5.058,0.496
			c1.12,0.461,2.735,4.799,3.896,5.335c1.174,0.547,1.594-2.806,1.775-3.619c0.195-0.811-0.562-2.883-0.846-3.468
			c-0.287-0.575,1.864-5.852,3.639-6.745c1.746-0.896,3.608-3.831,3.461-4.354c-0.163-0.513,1.407-0.92,1.82-1.141
			c0.427-0.209-0.063-4.479,0.633-5.406c0.69-0.92,3.992-2.874,5.044-3.314c1.037-0.438,1.829-3.126,1.454-3.603
			c-0.383-0.479,2.693-3.101,4.304-3.607c1.595-0.489,2.977,0.917,2.587,1.146c0.314-0.181,2.525-1.323,3.467-1.941
			c1.095-0.723,0.019-2.721-0.696-3.315c-0.695-0.573-0.272-2.889,0.576-3.098c0.85-0.21,1.589-2.209,1.367-2.641
			c-0.229-0.436,3.521,0.338,4.95-0.717c1.41-1.055,0.409,2.539-0.638,3.986c-1.035,1.453,0.771,2.828,1.446,2.551
			c0.654-0.281,1.376,0.771,1.508,1.181c0.135,0.398,1.59-0.427,2.523-0.017c0.949,0.415,1.508-1.293,1.584-2.072
			c0.062-0.791-2.27-2.425-2.63-3.37c-0.354-0.938-0.517-6.437-0.561-7.567c-0.058-1.123-1.564-2.954-2.054-2.624
			c-0.49,0.307-1.479-2.933-2.26-3.626c-0.791-0.71-0.963-2.265-0.937-2.785c0.037-0.524-2.662-3.341-3.312-4.647
			c-0.648-1.301-1.543-1.034-1.607-0.438c-0.069,0.604-1.941,0.682-2.711,0.609c-0.771-0.068-1.403-3.052-1.403-4.178
			c0-1.12-3.479-1.312-4.048-2.224c-0.565-0.897-2.827-0.477-3.195-1.104c-0.359-0.621-2.372-1.201-2.754-0.963
			c-0.42,0.229-0.224,8.296-0.601,10.479c-0.394,2.172-2.224,4.092-2.91,4.031c-0.658-0.043-0.266,1.557,0.199,1.41
			c0.476-0.145-1.313,2.378-1.537,4.028c-0.241,1.653-1.914-0.072-2.186-1.565c-0.281-1.504-1.917-3.528-2.225-3.02
			c-0.316,0.51-1.443-0.61-1.938-0.292c-0.485,0.313-3.585-1.803-4.845-2.488c-1.244-0.658-1.955-4.504-2.659-4.839
			c-0.729-0.35-0.121-0.806-0.145-1.396c-0.026-0.573,2.42-2.817,3.163-3.69c0.734-0.9,3.419-4.388,4.482-5.139
			c1.069-0.754,1.894-2.748,1.717-3.121c-0.188-0.358,4.559-1.84,5.84-2.283c1.283-0.444,2.394-4.021,2.562-5.052
			c0.181-1.029-0.811-2.976-1.39-3.229c-0.604-0.258,1.782-0.347,2.569,0.056c0.794,0.391,3.249-0.729,4.208-0.209
			c0.951,0.504,2.911,1.655,4.324,2.559c0,0,0,0-0.307,2.625c-0.575,4.453-0.575,4.453-0.575,4.453
			c-3.737,1.554-4.812,4.215-3.505,4.17c1.314-0.063,7.271,2.578,8.961,3.782c1.684,1.215,2.209-1.739,2.708-2.729
			c0.499-0.972,0.339-3.829-0.062-4.396c-0.407-0.573,1.953-0.372,2.608,0.258c0.657,0.637,1.438-0.65,1.946-0.874
			c0.502-0.229,0.762-2.682,1.04-3.169c0.264-0.504-1.126-1.003-1.162-1.61c-0.048-0.619-2.723-1.773-3.59-2.198
			c-0.883-0.413-1.081-2.258-0.642-2.582c0.413-0.319-0.306-2.676-0.74-3.449c-0.415-0.776-3.228-1.404-4.158-1.404
			c-0.928,0-1.894-2.169-2.438-2.479c-0.533-0.312-4.135-0.712-5.007-0.444c-0.896,0.258-2.529-2.558-4.031-1.694
			c-1.493,0.863-3.038-1-3.72-1.378c-0.683-0.366-4.191,3.398-4.162,6.046c0.036,2.668,1.369,5.227,1.916,5.299
			c0.557,0.08-0.121,2.474-0.734,3.155c-0.614,0.679-2.083-0.722-1.521-1.323c0.549-0.603-1.53-3.385-2.247-4.506
			c-0.504-0.812-2.336-1.541-3.573-2.034c-0.726,0.785-1.438,1.589-2.136,2.394c0.274,0.967,0.593,2.224,0.281,3.173
			c-0.518,1.615-1.87,1.857-1.942,1.163c-0.043-0.312-0.724-0.545-1.528-0.656c-0.73,0.877-1.438,1.788-2.152,2.68
			c-0.7,0.878-1.399,1.754-2.085,2.653c-0.74,0.954-1.463,1.92-2.171,2.894c-0.642,0.884-1.252,1.764-1.878,2.646
			c-0.932,1.316-1.833,2.646-2.713,3.988c-0.867,1.293-1.696,2.585-2.511,3.895c-0.692,1.136-1.356,2.278-2.039,3.429
			c-0.441,0.787-0.909,1.577-1.364,2.375c-0.662,1.203-1.327,2.409-1.972,3.629c-0.364,0.688-0.717,1.383-1.063,2.087
			c-1.471,2.86-2.867,5.771-4.152,8.737c-0.041,0.086-0.083,0.157-0.121,0.25c-0.633,1.446-1.229,2.935-1.82,4.418
			c-0.236,0.562-0.445,1.123-0.669,1.688c-0.583,1.521-1.163,3.051-1.702,4.59c-0.096,0.261-0.169,0.522-0.266,0.785
			c-1.796,5.17-3.334,10.443-4.589,15.834c-0.095,0.359-0.177,0.723-0.253,1.08c-1.271,5.582-2.271,11.259-2.955,17.039
			c0,0.036-0.007,0.075-0.015,0.115c0.787,0.896,1.673,1.957,1.912,2.718c0.44,1.425,2.925,2.355,3.393,2.65
			c0.446,0.274,0.618-2.729,0.28-3.521c-0.32-0.785,0.604-1.249,0.587-0.673c-0.016,0.574,2.331,3.227,3.104,4.188
			c0.766,0.951,1.567,7.145,2.306,8.478c0.746,1.316,7.887,4.08,10.195,4.556c2.296,0.487,5.188,3.066,5.643,3.807
			c0.453,0.741,3.5,1.111,4.164,1.403c0.656,0.305,2.222,2.378,2.872,2.811c0.646,0.438,1.17,1.667,1.17,1.999
			c0,0.322,4.032,1.854,5.01,2.931c0.972,1.078,2.586,0.785,2.896,0.327c0.305-0.455,1.102,2.141,1.526,3.043
			c0.397,0.896,0.498,3.104,0.185,3.456c-0.31,0.347-0.896,4.399-1.581,5.215c-0.687,0.812-2.113,6.712-1.808,7.872
			c0.311,1.167,2.204,3.566,3.032,3.932c0.805,0.358,0.462,1.623-0.183,1.711c-0.646,0.076-0.343,5.711,1.179,6.549
			C95.485,224.971,96.764,227.462,96.539,227.896z"/>
		<line fill="none" x1="115.644" y1="129.062" x2="115.636" y2="129.062"/>
		<path fill="#DCDDDD" d="M104.547,60.626c1.942-0.32,5.176-0.865,5.396-1.412c0.159-0.441,0.182-1.779-0.188-2.243
			c0.312,0.021,0.668,0.034,0.936,0.034c0.751,0,1.972-4.038,2.745-4.983c0.777-0.939,5.223-2.339,6.275-2.975
			c1.063-0.65,3.376-2.877,4.27-3.129c0.892-0.271,2.188-2.352,1.979-2.77c-0.185-0.403,3.013-2.354,4.233-2.864
			c1.211-0.521,1.844-1.945,1.395-1.994c-0.301-0.049-7.08,3.498-13.279,7.021c-0.063,0.04-0.112,0.086-0.17,0.129
			c-1.778,1.206-3.539,2.461-5.256,3.73c-1.18,0.871-2.327,1.782-3.478,2.68c-0.601,0.479-1.21,0.945-1.819,1.427
			c-1.35,1.104-2.708,2.232-4.043,3.388c-0.271,0.231-0.555,0.479-0.837,0.729c-1.476,1.284-2.932,2.601-4.365,3.943
			C100.276,61.195,103.272,60.839,104.547,60.626z"/>
		<path fill="#DCDDDD" d="M207.218,139.86c-0.75-0.03-0.785,2.288,0.023,2.543c0.57,0.179,1.303-1.301,2-2.278v-9.035
			c-0.068-0.062-0.126-0.146-0.182-0.201c-0.972-0.965-0.823-0.98,0.182-0.24v-55.51c-0.826,0.762-1.631,1.493-2.132,1.883
			c-1.325,1.046-3.648,5.565-4.396,6.644c-0.768,1.067-1.848,1.271-2.293,1.301c-0.438,0.031-0.806,1.227-0.806,1.668
			c0,0.446-3.932,2.479-4.335,4.267c-0.419,1.779,0.381,5.857,0.381,7.311c0,1.44,1.462,4.312,2.549,4.358
			c1.079,0.052,0.521,2.455,0.231,3.126c-0.288,0.688,0.687,1.431,0.646,1.997c-0.016,0.582-2.755,1.391-3.589,1.715
			c-0.854,0.31-2.218,2.221-2.389,2.919c-0.153,0.616-2.771,1.061-3.637,1.89c0.215-0.591,0.499-1.425,0.742-1.896
			c0.5-0.945-0.188-2.606-0.604-2.944c-0.404-0.351-0.604-5.063-1.271-6.078c-0.658-1.021-2.309-2.727-2.714-3.062
			c-0.403-0.326,0.283-1.566,0.52-2.097c0.237-0.521-2.198-0.834-2.865-0.438c-0.667,0.387-1.032,5.058-1.307,6.337
			c-0.275,1.276,1.207,3.238,1.611,3.329c0.392,0.101,0.286,2.399-0.562,2.476c-0.862,0.086-1.646,3.438-1.205,4.204
			c0.442,0.768-0.61,2.271-1.119,2.617c-0.51,0.343,3.277,0.152,5.023,0.104c1.719-0.043,3.066,0.729,2.892,0.877
			c-0.185,0.139-3.313,0.604-3.871,1.342c-0.552,0.738-2.676,2.166-3.094,2.741c-0.411,0.565,0.698,1.832,1.604,1.767
			c0.898-0.052,1.927,3.111,2.631,3.695c0.692,0.591,0.435,2.229,0.13,2.678c-0.312,0.443-4.539-0.308-6.143,0.095
			c-1.604,0.393-3.639,3.794-3.771,5.076c-0.148,1.281,0.25,4.968,0.461,5.979c0.208,1.019,3.57,1.656,4.246,2.155
			c0.688,0.489,3.903,0.014,4.588,0.324c0.646,0.316,2.827-3.268,3.262-4.919c0.406-1.673,3.848-4.7,4.564-5.841
			c0.712-1.13,4.406-1.001,5.308-1.597c0.921-0.576,0.407,2.806,0.85,4.665c0.418,1.871,3.969,1.642,3.447-0.117
			c-0.519-1.742,0.354-2.508,0.49-1.869c0.159,0.622,3.55,2.021,4.2,3.001C208.151,137.796,207.973,139.876,207.218,139.86z"/>
		<path fill="#DCDDDD" d="M209.241,150.831c-0.699-0.361-1.348-0.691-1.841-0.902c-2.101-0.874-3.737-4.061-4.158-4.468
			c-0.432-0.43,0.355-1.446,0.155-2.083c-0.198-0.631-4.965-0.763-6.339-0.25c-1.396,0.514-8.543,1.264-10.233,2.01
			c-1.696,0.756-4.244-0.047-5.035-0.184c-0.793-0.146-2.683,2.188-3.641,2.606c-0.967,0.431-2.188,3.729-2.709,7.361
			c0,0,0,0-1.298,2.536c-0.852,1.606-0.852,1.606-0.852,1.606c-2.354,1.804-4.966,7.785-5.736,8.989
			c-0.76,1.201-1.379,9.829-1.379,12.734c0,2.896,2.524,9.05,3.241,10.729c0.727,1.701,5.104,5.45,6.562,6.354
			c1.461,0.877,6.215,1,7.773,1c1.552-0.016,3.332-1.487,3.934-3.29c0,0,0,0,2.291,0.228c1.055,0.105,1.055,0.105,1.055,0.105
			c0.047,1.273,3.42,2.304,4.25,2.754c0.821,0.439,3.044,0.104,3.703-0.092c0.662-0.188,1.398,5.771,0.921,7.486
			c-0.472,1.729,1.174,7.77,1.646,9.586c0.495,1.821,2.566,6.795,2.783,8.578c0.192,1.784-1.221,7.725-1.457,9.801
			c-0.229,2.088,2.583,7.896,3.34,9.896c0.729,2.002,1.349,6.297,1.349,7.293c0,0.512,0.792,2.316,1.676,4.285L209.241,150.831
			L209.241,150.831z"/>
		<path fill="#DCDDDD" d="M126.21,293.255c0.739,0,1.463,0,2.232,0C128.839,290.846,126.089,291.236,126.21,293.255z"/>
		<path fill="#DCDDDD" d="M171.155,71.384c1.146,0.452,3.304-1.114,2.482-1.728c-0.848-0.601-0.403-0.579,0-0.327
			c0.396,0.253,0.818-2,0.387-2.421c-0.439-0.439,3.336-3.188,2.671-5.783c-0.661-2.604,1.027-5.269,2.037-5.298
			c1.014-0.028,0.722-2.938-0.492-3.212c-1.203-0.271-0.071-0.534,0.385-0.952c0.449-0.406,1.022-3.006,0.769-3.496
			c-0.274-0.504,1.849-1.068,2.206-1.659c0.396-0.579,2.813-1.751,3.68-1.945c0.854-0.191,1.312-2.477,0.396-2.37
			c-0.938,0.114-3.358-0.376-3.775-0.815c-0.405-0.438-4.038-0.831-5.083-0.396c-1.049,0.444-0.328-2.548,1.127-2.863
			c1.457-0.331,0.22-2.396-1.331-2.397c-1.55-0.014-5.376-0.573-6.276-0.372c-0.904,0.2-2.649-0.624-3.303-0.722
			c-0.633-0.089-5.229,1.375-7.404,1.27c-2.171-0.092-7.518,0.126-8.66,0.443c-1.181,0.31-2.009,2.568-1.84,3.373
			c0.165,0.809-5.179,0.791-6.847,0.809c-1.688,0.028-10.622,1.934-12.96,3.212c-2.34,1.28-4.165,4.57-3.394,4.636
			c0.775,0.062-1.303,1.927-2.551,2.361c-1.262,0.43-4.25,0.623-4.965,1.327c-0.695,0.699,0.757,1.189,1.033,1.662
			c0.279,0.467,1.108-0.413,1.908,0.043c0.784,0.438,3.396,0.656,4.085,0.923c0.691,0.272-2.214,0.825-3.582,0.923
			c-1.362,0.097-1.05,2.776,0.059,3.146c1.115,0.378,3.984,0.771,4.275,0.31c0.297-0.468,3.41,0.512,4.812,0.673
			c1.396,0.149,2.473,3.659,2.896,4.432c0.434,0.762,0.521,3.433,0.418,4.212c-0.103,0.771,2.477,2.184,2.941,1.688
			c0.459-0.486,0.334,1.218-0.7,1.131c-1.021-0.094-0.354,2.882,0.917,3.313c1.271,0.416,0.401,2.253-0.331,2.806
			c-0.746,0.554-0.347,2.304-1.092,2.938c-0.745,0.611,2.675,6.537,2.647,9.582c-0.021,3.031,1.87,5.521,2.604,5.521
			c0.728,0,3.229,0.616,3.558,1.268c0.329,0.646,1.547-0.453,2.012-0.952c0.469-0.495,1.494-1.959,2.256-3.249
			c0.772-1.292,2.49-7.396,2.719-8.044c0.23-0.658,3.103-0.243,3.754-0.584c0.648-0.335,2.525-1.812,3.062-2.252
			c0.533-0.439,4.617-2.167,5.739-2.979c1.115-0.8,2.973-4.268,3.837-5.006c0.864-0.734-0.441-0.521-1.537-1.233
			c-1.079-0.712-0.599-1.581-0.286-1.917C166.727,70.057,170.015,70.949,171.155,71.384z"/>
		<path fill="#DCDDDD" d="M206.807,44.319c-1.152-0.399-3.493,0.893-3.199,1.61c0.306,0.731-1.908-0.929-3.456-0.14
			c-1.547,0.812-1.964,3.51-1.256,3.868c0.705,0.35,1.227,2.501,1.24,2.917c0.021,0.422,2.993,0.114,3.766-0.511
			c0.752-0.625,0.645,2.185-0.094,2.938c-0.75,0.76,0.264,2.278,1.094,2.407c0.831,0.111,1.954,2.071,2.812,2.052
			c0.433-0.021,1.012-0.854,1.526-1.828V47.7l-0.016-0.003C208.557,47.603,207.954,44.703,206.807,44.319z"/>
		<path fill="#DCDDDD" d="M178.722,112.086c0.894-0.146,1.596-0.88,1.563-1.631c-0.048-0.735-1.324-4.108-1.833-4.108
			c-0.513,0-1.476,2.479-2.083,2.235c-0.604-0.247-0.936,2.012-0.797,2.873C175.716,112.313,177.822,112.242,178.722,112.086z"/>
		<path fill="#DCDDDD" d="M175.486,87.042c0.308,0.895,1.444,1.476,2.542,1.305c1.079-0.182,3.238-1.299,3.999-1.367
			c0.767-0.086,1.601-3.899,1.124-4.729c-0.477-0.837-4.06-0.733-4.945-0.785c-0.864-0.052-3.551-0.942-4.061-1.519
			c-0.49-0.567-0.9,2.215-1.711,2.566c-0.827,0.363,0.396,0.895,0.745,0.6c0.326-0.296-0.028,1.436-0.398,2.021
			C172.419,85.732,175.176,86.145,175.486,87.042z"/>
		<path fill="#DCDDDD" d="M95.473,87.111c-0.568,0.521-0.07,3.154,1.005,3.229c1.065,0.077,2.777-3.967,4.101-3.155
			c1.313,0.812,2.196,1.126,1.979,0.702c-0.221-0.428-3.963-2.069-4.42-2.367C97.674,85.233,96.048,86.603,95.473,87.111z"/>
		<path fill="#DCDDDD" d="M109.188,176.139c0,0.45,2.335,0.381,2.719-0.338c0.367-0.714,0.175-1.295-0.458-1.295
			C110.837,174.506,109.188,175.686,109.188,176.139z"/>
		<path fill="#DCDDDD" d="M98.775,172.296c1.123-0.215,0.597,1.602,0.864,2.241c0.268,0.648,2.949,1.177,3.486,1.619
			c0.536,0.438,1.921-0.82,2.991-0.688c1.073,0.129-0.35-3.708-2.144-3.599c-1.81,0.11-3.232-1.628-3.647-1.854
			c-0.439-0.188-2.515-1.459-3.115-1.934c-0.586-0.482-5.17-0.896-6.729-0.896c-1.557,0-3.271,1.603-3.505,2.112
			c-0.257,0.522,2.462,0.876,3.23,0.461c0.777-0.401,4.408,0.462,5.151,1.332C96.107,171.972,97.644,172.511,98.775,172.296z"/>
		<path fill="#DCDDDD" d="M93.883,176.139c0,0.45,2.365,0.163,2.933,0.188c0.574,0.009,0.556-0.385-0.047-0.854
			C96.172,174.99,93.883,175.686,93.883,176.139z"/>
		<path fill="#DCDDDD" d="M95.556,163.995c-0.617-0.237-1.108,0.725-1.108,1.181c0,0.453,0.34,0.822,0.743,0.822
			C95.62,165.998,96.172,164.245,95.556,163.995z"/>
		<path fill="#DCDDDD" d="M100.504,164.374c-0.208-0.459-1.22-0.823-1.521-0.823c-0.312,0-0.524,0.788-0.465,1.726
			C98.564,166.233,100.707,164.823,100.504,164.374z"/>
		<path fill="#DCDDDD" d="M104.071,169.855c0.947-0.456,1.062-1.599,0.498-1.539c-0.57,0.062-1.622-1.645-2.229-1.88
			c-0.622-0.249-1.108,1.016-1.108,1.573c0,0.55,0.342,0.935,0.77,0.826C102.404,168.723,103.103,170.307,104.071,169.855z"/>
	</g>
	<path fill="#CFE9F8" d="M109.942,57.334c-0.162-0.169-0.852,0.326-0.543,0.625C109.55,58.16,110.211,57.675,109.942,57.334z"/>
	<path fill="#CFE9F8" d="M127.912,110.895c-0.133-0.188-0.819,0.318-0.556,0.643C127.52,111.708,128.213,111.213,127.912,110.895z"
		/>
</g>
<path fill="none" stroke="#FFFFFF" stroke-width="5" stroke-miterlimit="10" d="M58.182,238.934
	c-42.583,42.241-64.07,78.562-52.643,95.741c19.405,29.171,126.336-7.854,238.836-82.694
	C356.881,177.137,432.346,92.818,412.94,63.649c-9.896-14.876-42.561-12.536-87.113,3.261"/>
<g>
	<g>
		<path fill="#C7CCC8" d="M434.76,39.995l7.271-10.168l-14.109-16.232l-7.275,10.17l-11.078,5.786h-0.002v0.002h-0.002l0,0
			l-5.086,7.114c-0.117-0.16-0.238-0.312-0.369-0.462c-2.262-2.605-5.834-3.396-8.883-2.258c1.553-2.862,1.266-6.508-1.002-9.108
			c-1.6,1.436-3.652,3.232-5.709,5.017l-4.068-4.364c0.234-0.339,0.217-0.805-0.066-1.131c-0.334-0.385-0.916-0.423-1.299-0.09
			c-0.014,0.009-0.021,0.017-0.029,0.026c-0.361,0.339-0.391,0.902-0.062,1.276c0.281,0.325,0.744,0.404,1.113,0.218l3.754,4.638
			c-2.133,1.851-4.219,3.641-5.76,4.962c2.262,2.602,5.832,3.394,8.883,2.252c-1.555,2.863-1.266,6.51,1,9.113
			c0.117,0.132,0.238,0.265,0.363,0.391l-7.531,3.931v-0.001l0,0l-0.002,0.001l0,0l-7.271,10.167l0,0l-11.082,5.79l14.115,16.231
			l11.082-5.789l0,0v-0.001l0,0l0,0l7.271-10.167l6.967-3.64l5.549,7.604c1.854,2.133,7.26,0.467,10.453-2.305l0.006-0.005
			c3.191-2.775,5.645-7.945,3.789-10.079l-6.736-6.488l4.73-6.612l11.078-5.786l0,0l0,0L434.76,39.995L434.76,39.995z"/>
	</g>
	<path fill="#C2C6C1" d="M388.575,19.559c2.137,2.483,2.291,5.992,0.621,8.617l-0.41-0.477c1.432-2.39,1.252-5.522-0.664-7.75
		c-2.393-2.783-6.59-3.098-9.371-0.703c-2.783,2.395-3.1,6.589-0.703,9.37c1.914,2.229,4.984,2.872,7.561,1.816l0.412,0.477
		c-2.844,1.261-6.293,0.581-8.43-1.9c-2.609-3.034-2.266-7.608,0.77-10.218C381.389,16.183,385.965,16.525,388.575,19.559z
		 M379.583,20.219c-2.229,1.917-2.48,5.277-0.564,7.505c1.568,1.821,4.102,2.319,6.191,1.396l-0.303-0.35
		c-1.893,0.775-4.15,0.304-5.555-1.333c-1.762-2.044-1.527-5.127,0.518-6.885c2.043-1.762,5.125-1.53,6.885,0.515
		c1.408,1.635,1.539,3.937,0.486,5.695l0.303,0.35c1.229-1.927,1.111-4.508-0.455-6.331
		C385.174,18.554,381.813,18.302,379.583,20.219z M380.838,21.677c-1.404,1.209-1.562,3.327-0.355,4.735
		c0.988,1.147,2.584,1.464,3.902,0.879l-0.189-0.22c-1.191,0.49-2.611,0.191-3.5-0.84c-1.109-1.289-0.965-3.233,0.326-4.341
		c1.287-1.108,3.23-0.961,4.338,0.33c0.889,1.031,0.971,2.482,0.309,3.588l0.189,0.218c0.773-1.213,0.701-2.84-0.287-3.99
		C384.362,20.628,382.245,20.47,380.838,21.677z"/>
	<g>
		<g>
			<polygon fill="#C2C6C1" points="391.651,77.478 380.571,83.268 366.456,67.036 377.542,61.247 			"/>
			<polygon fill="#C2C6C1" points="410.004,61.521 398.924,67.311 384.809,51.078 395.891,45.287 			"/>
			<polygon fill="#8E988F" points="391.651,77.479 398.926,67.309 384.811,51.077 377.542,61.247 			"/>
			<polygon fill="#C2C6C1" points="434.758,39.997 442.034,29.827 427.922,13.595 420.645,23.766 			"/>
			<polygon fill="#C2C6C1" points="416.409,55.953 423.68,45.784 409.567,29.552 402.292,39.722 			"/>
			<polygon fill="#8E988F" points="434.76,39.995 423.678,45.787 409.565,29.557 420.647,23.766 			"/>
		</g>
		<path fill="#E76C7A" d="M425.686,58.885c1.855,2.134-0.598,7.304-3.787,10.079l-0.006,0.005c-3.193,2.772-8.6,4.438-10.453,2.305
			l-12.113-16.6c-1.121-1.29-1.168-3.25-0.328-5.211c-2.555,0.303-5.207-0.624-7.021-2.708c-2.264-2.604-2.553-6.251-0.998-9.113
			c-3.051,1.142-6.623,0.35-8.885-2.252c1.541-1.321,3.629-3.11,5.76-4.961l-3.754-4.639c-0.367,0.187-0.83,0.107-1.113-0.218
			c-0.326-0.374-0.297-0.938,0.064-1.276c0.008-0.009,0.016-0.017,0.027-0.026c0.385-0.335,0.967-0.294,1.301,0.09
			c0.283,0.326,0.301,0.792,0.064,1.131l4.07,4.364c2.055-1.786,4.105-3.582,5.707-5.017c2.264,2.603,2.553,6.248,1.002,9.108
			c3.049-1.142,6.623-0.347,8.883,2.258c1.82,2.095,2.367,4.865,1.701,7.357c2.043-0.541,3.963-0.218,5.076,1.062L425.686,58.885z"
			/>
		<path fill="#C36573" d="M425.686,58.885c1.855,2.134-0.598,7.304-3.787,10.079l-0.006,0.005l-38.844-44.673
			c0.01-0.01,0.016-0.017,0.027-0.026c0.385-0.335,0.969-0.294,1.301,0.09c0.283,0.326,0.301,0.792,0.064,1.131l4.07,4.364
			c2.057-1.785,4.107-3.582,5.709-5.017c2.264,2.604,2.551,6.249,1,9.108c3.049-1.141,6.623-0.347,8.883,2.259
			c1.82,2.095,2.367,4.865,1.701,7.357c2.045-0.541,3.963-0.218,5.076,1.062L425.686,58.885z"/>
	</g>
</g>
<g opacity="0.57">
	<polygon opacity="0.44" fill="#727171" enable-background="new    " points="259.737,372.615 244.187,370.826 221.713,369.834 
		196.77,369.834 174.296,370.826 158.745,372.615 153.194,374.844 158.745,377.072 174.296,378.859 196.77,379.854 221.713,379.854 
		244.187,378.859 259.737,377.072 265.29,374.844 	"/>
</g>
<g>
	<g>
		<polygon fill="#FFFFFF" points="316.739,109.265 315.282,109.265 315.282,113.85 310.696,113.85 310.696,115.934 315.282,115.934 
			315.282,120.103 316.739,120.103 316.739,115.934 321.743,115.934 321.743,113.85 316.739,113.85 		"/>
		<path fill="#FFFFFF" d="M310.383,111.14h-7.471c-3.348,0-6.498,2.581-6.498,5.521c0,3.003,2.283,5.444,5.688,5.444
			c0.233,0,0.467,0.006,0.688-0.01c-0.223,0.424-0.379,0.906-0.379,1.399c0,0.834,0.447,1.517,1.021,2.064
			c-0.435,0-0.847,0.017-1.295,0.017c-4.146,0-7.343,2.642-7.343,5.38c0,2.694,3.498,4.385,7.646,4.385
			c4.729,0,7.338-2.681,7.338-5.38c0-2.161-0.641-3.457-2.605-4.854c-0.68-0.478-1.971-1.639-1.971-2.318
			c0-0.805,0.229-1.195,1.436-2.14c1.232-0.965,2.107-2.236,2.107-3.813c0-1.879-0.838-3.815-2.408-4.232h2.371L310.383,111.14z
			 M307.772,129.495c0.061,0.25,0.092,0.509,0.092,0.771c0,2.18-1.402,3.883-5.434,3.883c-2.867,0-4.938-1.812-4.938-3.994
			c0-2.135,2.565-3.91,5.436-3.883c0.67,0.006,1.295,0.115,1.854,0.296C306.342,127.65,307.458,128.262,307.772,129.495z
			 M303.185,121.368c-1.925-0.062-3.752-2.154-4.084-4.684c-0.332-2.521,0.957-4.459,2.881-4.398
			c1.922,0.06,3.752,2.085,4.085,4.606C306.399,119.423,305.106,121.423,303.185,121.368z"/>
	</g>
</g>
<path fill="#FFFFFF" d="M94.57,119.618c-0.963,0.427-1.998,0.716-3.084,0.846c1.109-0.665,1.96-1.717,2.361-2.972
	c-1.037,0.612-2.188,1.062-3.41,1.304c-0.98-1.044-2.375-1.696-3.92-1.696c-2.965,0-5.371,2.404-5.371,5.37
	c0,0.421,0.048,0.831,0.139,1.224c-4.463-0.224-8.42-2.357-11.069-5.607c-0.463,0.793-0.728,1.715-0.728,2.7
	c0,1.859,0.948,3.507,2.39,4.47c-0.88-0.028-1.709-0.271-2.433-0.672c0,0.021,0,0.044,0,0.063c0,2.604,1.851,4.773,4.308,5.271
	c-0.448,0.123-0.925,0.188-1.415,0.188c-0.346,0-0.682-0.032-1.01-0.097c0.686,2.133,2.667,3.687,5.02,3.729
	c-1.841,1.438-4.154,2.302-6.673,2.302c-0.434,0-0.858-0.025-1.278-0.075c2.376,1.521,5.2,2.414,8.229,2.414
	c9.878,0,15.28-8.188,15.28-15.281c0-0.231-0.005-0.464-0.016-0.695C92.94,121.64,93.851,120.694,94.57,119.618z"/>
<path id="f_2_" fill="#FFFFFF" d="M228.604,212.146v-12.457h4.18l0.627-4.854h-4.807v-3.104c0-1.4,0.389-2.358,2.4-2.358l2.57-0.002
	v-4.347c-0.439-0.06-1.97-0.188-3.744-0.188c-3.707,0-6.245,2.262-6.245,6.416v3.582h-4.188v4.854h4.188v12.457H228.604z"/>
</svg>
